<svg xmlns="http://www.w3.org/2000/svg" fill="none" viewBox="0 0 1006 974" height="974" width="1006">
<circle fill="#F7CB00" r="470.022" cy="486.85" cx="504.705"></circle>
<path fill="black" d="M479.589 973.904C291.338 963.669 128.68 872.459 43.2384 674.945C-37.5464 488.145 -3.50888 313.141 131.771 160.865C211.816 70.7822 315.278 20.0377 434.931 4.77094C582.747 -14.0522 715.981 22.6399 830.629 118.1C930.217 201.026 990.24 307.373 1002.6 436.923C1018.97 608.848 956.594 750.065 824.492 860.011C732.086 936.909 623.531 972.3 479.589 973.904ZM972.351 508.963C971.001 377.678 938.444 280.006 867.539 198.207C746.971 59.202 593.672 3.64329 412.124 37.0393C185.308 78.8059 19.2554 281.871 38.1023 521.151C46.9381 633.179 91.509 729.246 171.119 808.312C310.359 946.711 516.935 986.309 695.262 903.903C872.284 822.105 963.297 679.977 972.394 508.877L972.351 508.963Z"></path>
<path fill="black" d="M834.783 472.914H862.074C859.071 659.715 725.314 813.51 531.361 828.343C335.536 843.349 157.383 703.563 146.066 473.261H174.358C181.845 582.774 222.847 675.632 314.208 741.513C375.363 785.578 444.744 805.573 520.001 801.886C677.74 794.166 825.164 672.9 834.739 472.914H834.783Z"></path>
<path fill="black" d="M321.05 403.792C347.21 404.486 373.064 405.18 399.18 405.874C397.656 411.729 395.828 417.844 394.479 424.09C393.391 429.208 392.477 434.456 392.259 439.66C392.172 441.699 393.783 444.908 395.48 445.602C397.439 446.426 400.877 445.776 402.575 444.431C404.925 442.523 407.015 439.574 407.885 436.668C409.931 429.815 411.585 422.832 412.673 415.763C414.327 404.92 410.845 398.11 400.877 393.123C391.955 388.655 382.596 385.056 373.586 380.719C359.223 373.822 347.906 363.674 344.293 347.67C342.335 338.952 341.421 329.627 342.16 320.736C344.511 292.718 351.519 265.741 363.314 240.065C377.199 209.835 400.703 192.14 433.348 186.588C461.466 181.817 489.671 181.731 517.397 189.234C534.242 193.788 547.518 203.113 553.002 220.721C555.831 229.873 556.31 239.328 554.482 248.523C550.782 267.085 546.212 285.518 542.164 303.257C514.96 302.65 488.975 302.086 463.033 301.522C465.166 292.371 467.342 283.35 469.388 274.242C469.823 272.29 469.954 270.165 469.693 268.17C468.909 262.185 463.512 259.842 458.767 263.659C456.243 265.698 453.588 268.56 452.804 271.509C450.802 278.926 449.279 286.559 448.495 294.236C447.625 303.084 452.717 309.286 459.856 313.666C466.341 317.657 473.392 320.736 480.008 324.553C487.234 328.76 494.633 332.88 501.162 337.998C514.481 348.407 519.835 362.936 520.052 379.287C520.401 401.45 515.569 422.919 508.997 443.911C505.428 455.317 501.162 466.637 495.982 477.393C483.186 504.023 460.726 518.466 432.173 523.541C405.752 528.268 379.158 528.181 352.737 523.063C341.725 520.938 331.279 517.078 322.269 509.922C309.298 499.643 304.728 485.938 305.381 469.933C306.034 453.496 311.3 438.056 315.609 422.442C317.307 416.24 319.179 410.081 321.05 403.749V403.792Z"></path>
<path fill="black" d="M646.427 395.196H679.072C676.242 406.126 673.326 416.969 670.628 427.855C663.141 457.781 655.655 487.708 648.342 517.677C647.515 521.147 646.296 522.275 642.597 522.275C598.156 522.101 553.716 522.188 509.276 522.188C507.839 522.188 506.403 522.188 504.531 522.188C508.797 505.837 512.975 490.05 516.98 474.176C537.568 392.507 558.156 310.839 578.7 229.171C581.834 216.68 584.62 204.102 587.405 191.568C587.928 189.269 588.581 188.055 591.323 188.055C626.927 188.141 662.575 188.141 698.18 188.141C698.746 188.141 699.311 188.315 699.877 188.402C682.075 257.319 664.316 326.149 646.514 395.196H646.427Z"></path>
</svg>
