<svg xmlns="http://www.w3.org/2000/svg" fill="none" viewBox="0 0 1243 248" height="248" width="1243">
<path fill="black" d="M273.508 3.7313C269.986 17.186 266.439 30.3715 263.064 43.6305C253.573 80.9121 244.156 118.218 234.739 155.5C234.201 157.628 233.663 159.879 233.834 162.007C233.956 163.573 234.935 165.97 236.084 166.337C237.796 166.9 240.707 166.728 241.808 165.603C243.765 163.597 245.257 160.784 246.015 158.068C248.657 148.773 250.956 139.379 253.255 129.96C263.308 88.8137 273.337 47.6424 283.292 6.47116C283.855 4.12271 284.784 3.31543 287.279 3.33989C309.733 3.43774 332.187 3.41328 354.642 3.41328H357.65C357.577 4.26949 357.577 4.88106 357.43 5.44371C342.779 63.2254 328.2 121.031 313.353 178.764C309.293 194.567 302.835 209.416 292.146 222.088C281.555 234.638 267.662 241.61 251.812 244.496C229.553 248.557 207.319 248.141 185.501 241.708C175.424 238.723 166.642 233.39 160.625 224.339C155.66 216.902 153.752 208.585 153.483 199.851C153.043 185.589 156.54 171.915 159.94 158.215C171.339 112.2 182.737 66.1854 194.111 20.1704C195.285 15.3757 196.386 10.5565 197.389 5.71281C197.731 4.12271 198.294 3.41328 200.055 3.43774C224.099 3.48667 248.143 3.48667 272.163 3.48667C272.456 3.48667 272.774 3.60899 273.508 3.78023V3.7313Z"></path>
<path fill="black" d="M761.901 243.566C747.445 243.566 733.21 243.566 718.999 243.566C712.663 243.566 706.353 243.639 700.018 243.542C691.872 243.395 689.133 240.117 690.747 232.069C692.704 222.283 695.126 212.571 697.009 202.786C698.672 194.126 699.969 185.393 701.192 176.635C701.461 174.629 701.02 172.428 700.458 170.446C699.675 167.755 695.859 166.043 693.462 167.193C692.826 167.486 692.435 168.636 692.239 169.468C688.008 189.209 683.825 208.951 679.667 228.693C678.64 233.512 677.808 238.38 676.854 243.395H602.691C605.064 234.392 607.51 225.488 609.736 216.51C627.054 146.717 644.347 76.9485 661.518 7.13108C662.227 4.21998 663.23 3.33931 666.263 3.36377C696.52 3.53502 726.777 3.46163 757.034 3.6084C765.595 3.65733 774.058 4.97833 782.105 8.08514C796.072 13.5159 803.239 24.1084 804.975 38.7128C806.59 52.3143 804.413 65.5977 801.184 78.7099C797.637 93.0207 793.528 107.136 785.994 120.028C777.556 134.461 764.788 142.045 748.522 144.515C746.907 144.76 744.315 143.806 743.899 146.888C747.837 147.891 751.653 148.625 755.297 149.848C767.356 153.934 773.055 161.419 772.713 174.189C772.492 182.776 771.367 191.362 769.997 199.851C767.747 213.868 765.008 227.787 762.464 241.756C762.366 242.27 762.17 242.759 761.95 243.566H761.901ZM704.347 117.631C713.177 118.927 717.727 116.603 720.784 108.677C725.358 96.8614 728.489 84.6544 729.908 72.0559C730.959 62.6866 728.073 59.9712 718.314 61.2188C713.691 79.933 709.019 98.7695 704.347 117.631Z"></path>
<path fill="black" d="M1079.26 3.41318C1066.88 83.4562 1054.53 163.23 1042.13 243.346H963.856C967.329 230.234 970.778 217.147 974.398 203.496C969.433 203.496 964.834 203.398 960.26 203.619C959.6 203.643 958.719 205.135 958.474 206.065C955.539 217.783 952.677 229.525 949.865 241.292C949.498 242.857 949.082 243.616 947.272 243.616C923.35 243.542 899.404 243.567 875.482 243.567C875.164 243.567 874.87 243.469 874.234 243.346C875.213 240.533 876.142 237.769 877.121 235.005C902.779 162.937 927.533 90.5749 950.672 17.6507C951.846 13.9323 953.191 10.2628 953.998 6.47106C954.536 3.97583 955.588 3.36426 958.01 3.36426C988.585 3.43765 1019.16 3.41318 1049.73 3.41318C1058.59 3.41318 1067.44 3.41318 1076.3 3.41318C1077.33 3.41318 1078.35 3.41318 1079.23 3.41318H1079.26ZM1009.11 40.6459C1007.88 40.8905 1007.03 40.8905 1006.95 41.1107C996.216 75.0164 984.842 108.702 975.352 143.17H989.172C995.776 109.093 1002.38 75.1632 1009.08 40.6459H1009.11Z"></path>
<path fill="black" d="M367.506 3.51094C367.946 3.48648 368.362 3.41309 368.778 3.41309C396.295 3.46201 423.812 3.31523 451.33 3.65772C461.432 3.78003 471.509 5.1255 481.024 9.01512C492.153 13.5652 498.66 21.9316 501.326 33.4292C504.506 47.2508 503.356 61.0969 501.106 74.8451C496.801 101.265 490.074 127.098 480.951 152.295C477.698 161.248 473.319 169.639 467.449 177.174C458.472 188.696 446.169 194.249 432.153 196.818C419.189 199.166 406.128 198.848 393.066 198.824C392.235 198.824 391.403 198.824 390.033 198.824C387.025 213.673 384.041 228.546 381.032 243.469H307.799C327.709 163.524 347.571 83.6518 367.53 3.5354L367.506 3.51094ZM403.193 141.482C409.601 142.534 414.249 140.626 417.159 135.464C418.798 132.553 420.29 129.471 421.293 126.291C426.748 108.824 432.055 91.2598 433.817 72.9614C434.77 63.1028 432.153 61.4394 423.812 61.684C423.519 61.684 423.225 61.8308 422.712 61.9775C416.205 88.4221 409.699 114.94 403.193 141.507V141.482Z"></path>
<path fill="black" d="M1128.98 199.679C1126.19 213.697 1123.25 228.424 1120.27 243.37H1046.55C1049.34 232.558 1052.17 221.892 1054.84 211.177C1071.69 143.341 1088.57 75.5297 1105.28 7.66928C1106.11 4.26892 1107.4 3.31486 1110.88 3.33932C1137.12 3.53503 1163.37 3.19254 1189.61 3.75519C1198.69 3.9509 1207.93 5.44314 1216.67 7.84052C1231.29 11.8525 1238.85 22.6406 1241.27 37.2695C1243.03 47.862 1242.42 58.479 1241.03 69.0225C1237.21 97.8155 1229.61 125.679 1219.8 152.955C1216.62 161.786 1212.39 170.153 1206.42 177.516C1197.34 188.745 1185.26 194.983 1171.24 196.671C1157.47 198.334 1143.58 198.725 1128.98 199.704V199.679ZM1142.45 141.433C1148.57 142.509 1153.53 140.528 1156.3 135.66C1158.01 132.675 1159.67 129.495 1160.53 126.193C1164.79 109.509 1168.9 92.7761 1172.71 75.9945C1173.47 72.643 1172.98 68.8513 1172.34 65.402C1171.83 62.4909 1168.6 61.5124 1163.88 61.5858C1160.77 61.6347 1161.46 64.1055 1161.07 65.6222C1155.96 85.902 1150.97 106.206 1145.95 126.486C1144.73 131.452 1143.6 136.443 1142.45 141.433Z"></path>
<path fill="black" d="M653.169 3.41323C646.956 28.2921 640.841 52.7307 634.75 77.1203H582.284C581.427 80.5451 580.522 84.1656 579.471 88.3488C596.666 88.0063 613.446 87.6639 630.494 87.3214C625.186 108.335 619.903 129.178 614.693 149.8H564.085C563.254 153.225 562.349 156.87 561.419 160.637H613.91C607.086 188.182 600.237 215.752 593.388 243.444H467.053C469.866 232.778 472.752 222.333 475.369 211.838C492.271 143.684 509.148 75.5302 525.928 7.32731C526.637 4.41622 527.591 3.33984 530.82 3.33984C570.347 3.46216 609.899 3.4377 649.426 3.4377C650.576 3.4377 651.725 3.4377 653.217 3.4377L653.169 3.41323Z"></path>
<path fill="black" d="M11.2454 158.484C29.9817 158.998 48.4979 159.487 67.2098 160.001C66.1091 164.233 64.8127 168.612 63.8343 173.088C63.0516 176.782 62.3912 180.55 62.2444 184.293C62.1955 185.76 63.3451 188.084 64.5437 188.574C65.9379 189.161 68.4328 188.696 69.6313 187.717C71.3191 186.347 72.8111 184.219 73.4226 182.14C74.8902 177.223 76.0887 172.183 76.8715 167.12C78.07 159.316 75.5506 154.448 68.4328 150.852C62.0487 147.647 55.3467 145.054 48.8893 141.947C38.5916 136.981 30.4954 129.691 27.9026 118.193C26.5084 111.931 25.848 105.204 26.3861 98.8188C28.0739 78.6612 33.0882 59.2865 41.5268 40.817C51.482 19.0693 68.3105 6.34856 91.7187 2.38555C111.849 -1.03927 132.053 -1.08819 151.89 4.29367C163.973 7.57171 173.439 14.2501 177.377 26.922C179.408 33.5025 179.75 40.3032 178.429 46.9082C175.763 60.2651 172.51 73.4995 169.599 86.2692C150.105 85.8289 131.515 85.4375 112.925 85.0216C114.466 78.4655 116.032 71.9339 117.475 65.4023C117.793 63.9834 117.891 62.4667 117.695 61.0234C117.133 56.7424 113.268 55.03 109.868 57.7698C108.058 59.2376 106.174 61.2925 105.587 63.4208C104.144 68.7537 103.044 74.2579 102.505 79.7621C101.894 86.098 105.539 90.5992 110.651 93.7305C115.298 96.5926 120.361 98.7943 125.082 101.559C130.243 104.592 135.551 107.528 140.223 111.222C149.738 118.683 153.578 129.128 153.774 140.895C154.018 156.845 150.569 172.257 145.849 187.35C143.28 195.546 140.223 203.692 136.529 211.422C127.357 230.577 111.262 240.949 90.8381 244.594C71.9306 247.994 52.8518 247.921 33.9443 244.251C26.0437 242.71 18.5589 239.946 12.126 234.809C2.85565 227.396 -0.421979 217.562 0.0427604 206.089C0.507499 194.273 4.27433 183.192 7.35629 171.939C8.57928 167.486 9.92458 163.059 11.2454 158.484Z"></path>
<path fill="black" d="M869.298 152.271H892.657C890.627 160.123 888.548 167.927 886.591 175.755C881.235 197.258 875.854 218.786 870.644 240.337C870.032 242.833 869.176 243.64 866.51 243.64C834.687 243.518 802.841 243.567 771.018 243.567C769.991 243.567 768.964 243.567 767.594 243.567C770.627 231.824 773.66 220.449 776.522 209.049C791.271 150.338 806.02 91.6513 820.721 32.9156C822.971 23.9377 824.952 14.9108 826.983 5.88395C827.349 4.22046 827.814 3.36426 829.795 3.36426C855.307 3.43765 880.819 3.41318 906.331 3.41318C906.722 3.41318 907.138 3.5355 907.554 3.60889C894.81 53.171 882.091 102.611 869.323 152.271H869.298Z"></path>
</svg>
